<?xml version="1.0" encoding="UTF-8"?>
<svg id="Layer_1" xmlns="http://www.w3.org/2000/svg" version="1.1" viewBox="0 0 705.6 840.6">
  <!-- Generator: Adobe Illustrator 29.4.0, SVG Export Plug-In . SVG Version: 2.1.0 Build 152)  -->
  <defs>
    <style>
      .st0 {
        fill: #fff;
      }
    </style>
  </defs>
  <path d="M647,839.7h-353.2c-1.8-2.7-3.2-5.7-4.6-8.6-33.9-70.1-67.6-140.2-97.1-212.4-14.4-35.2-26.6-71.2-42.7-105.7-5.6-12-12-23.7-17.6-35.7-7.1-15.3-13.4-31.1-20.2-46.5,15,2.6,29.8,6.4,44.4,10.8,27.8,8.5,57.1,18.5,84.5,28.2,2.2.8,7.4,3.5,8.9,3.8,1.2.2,4-1.2,5.6-1.1.6-1-2.6-7.8-3.3-9.5-16.5-45.4-32.7-115.9-27.4-163.7,4.5-40.5,21.6-109.2,55.5-134.7,25.3-19,56.8-23.2,87.6-24.5,35-1.5,65.6,9.6,91.3,33,37.1,33.9,57.3,85.4,56.4,135.5,0,1.8-1.7,6.5.9,7.3,4.2,1.4,16.7-9.2,17.8,3.1,1.1,12.1-6.2,45.8-16.8,53.1-3,2-9.4,1.6-10.4,3.9-.8,1.8-.1,6.9-.4,9.5-.5,3.8-2.5,8.5-3.8,12.1-9.8,26.2-22.5,59.1-35.9,83.4-.7,1.3-3.1,3.8-3.4,4.9-.2.9.9,1.6.9,2.5,0,1.3-3.7,3.2-.2,5.2l1.3-.2c.7-1,1-2.1,1.9-3.1,7.6-8.8,19-19.4,27.8-27.2,26.3-23.4,57.5-44.1,90.2-57.4-1.9,9.6-3.6,19.2-4.9,28.9-6.2,46.2-9.7,92.8-16.1,138.9-8.4,60.1-20.6,119.2-31.1,178.9-4.4,25.2-10.3,54.7-11.2,80.1,0,2.4-.8,7,2.8,5.6.9-.7.4-4.2.5-5.5,5.4-62.8,21.3-126.4,31.7-188.7,11.5-69,17.3-137.3,26.6-206.4,2.7-19.7,13.2-58.3,10.2-75.8-.9-5.6-7.6-8.7-11.4-12.2-22.3-20.5-22.1-59.8-36.2-85.9-11.7-21.6-21.4-29.1-23.7-56-2.3-26.5-1.3-53.5-14.8-77.6-5.3-9.6-13.3-18.3-18.3-27.8-4.2-8.1-3.2-10.4,6.3-6.8,16.5,6.2,29.4,24.5,33.8,41,5.1,19.1,7.9,38.6,14.4,57.6.9,2.5,6.6,17.9,8.1,18.3.6.2,1.3.2,1.9-.2.8-.5.6-1.8.4-2.7-.4-2-3.2-7.1-4.2-9.6-8.6-22.6-11.3-44.7-17.9-67.3-5.4-18.6-17.4-31.2-34.3-40.1-3.4-14.9-15.9-27.4-21.5-40.9-.9-2.2-2.1-4.3-1.7-6.8,3.1,1.4,5.4,3.9,7.7,6.3,10.1,10.8,22.2,26.1,31.3,37.9,8.1,10.4,15.7,23.8,20.6,36,6.7,16.6,9.8,37.6,19.1,52.9.8,1.4,3.3,5.8,5,5.3,3.4-1-1.8-7.1-2.7-8.8-8-15.4-10.9-32-16.9-48-7.9-21-20.8-39.5-35.9-55.9,1.2-2.5.5-3.9-.2-6.3-4.1-13.4-15.1-26.8-12.7-41.5,2.1.9,3.2,2.8,4.5,4.6,5.2,7,8.7,15.7,14,22.9,8.1,11.1,18.4,20.1,26.3,32,14.7,22.1,14.7,35.7,19.7,60.5,5.2,25.3,16.4,54.1,28.9,76.7,8.2,14.7,19.6,27.1,27.7,42.1,9.3,17.1,14.4,36.8,19.1,55.6,7.7,30.9,9.5,64.8,11.6,96.7,2,30,1.4,58.1,1.1,88-.6,54,0,108.2-.5,162.1-.4,33.5-1.7,67.1,2.2,100.5-1.1,20.5.9,40.7,2.2,61,.3,4.8.4,9.7.6,14.6h0ZM431.3,186.3c-1.4,0-2.8.7-2.6,2.3.1,1.1,3.7,3.1,4.3,6.7.7,4.4-4.7,14.3,2.5,11.1,1.6-.7,12.1-8.3,13.8-9.8.5-.4,1-.8,1.3-1.5.6-2.1-1.3-2.8-2.8-3.6-2.1-1-14.8-5.3-16.5-5.2h0ZM405,210.8c2.3-2.2-1.7-4.4-2.9-5.9-1.9-2.7-2.3-5.1-1.9-8.4.2-2.1,3.1-7.1,0-7.9-.7-.3-1.2,0-1.8.2-1.8.6-14.5,11.4-14.8,12.7-.8,3.2,3.5,4.7,5.6,5.8,2.6,1.3,13.5,5.7,15.6,3.6ZM324.5,210.6c1.4-1.5,3.9-2.4,3-5.4-.6-1.9-10.2-5.1-12.4-5.7-2.5-.7-5.2-1.9-7.7-.6-.3,4.2,3.5,6.4,4.2,10.8s-2.7,10.7,2.6,11.7l1.2-.5c2.8-3.7,6.2-6.9,9.3-10.2h0ZM278.5,203.3c-2.6.4-12.2,9.8-13.5,12.4-.7,1.4-1.2,2.5.3,3.4s4.3,2.5,6,3.3c1.5.8,9.1,4,10.3,3.8,4.3-.8-2.1-11.8-2.4-14.5s3-9-.7-8.4h0ZM350.7,208.8c-.3-.5-1.8-.4-2.5-.2-1.6.6-6.3,5-7.9,6.5-11.3,10.2-16.4,15.5-8,30.5,1,1.8,3,6.8,5.3,5.2.6-.4.6-1,.5-1.6-.1-1.9-4.9-8.5-5.8-11.3-1.8-5.5-.7-8.3,2.7-12.6,3.5-4.4,13-10.4,15.1-14,.4-.6.9-1.9.5-2.5h0ZM332.4,265.4c-6.6,1.2-12.4,17-5.5,19,6.2,1.9,8.4-6.7,9-11.2.2-1.4-.5-2.9-.4-3.7.1-.6,1.1-1.1.9-2.2-.3-1.3-2.7-2.2-4-1.9h0ZM351.7,385.8c-2-1.3-9,5.4-11.6,6.6-7.8,3.6-19.2,4.1-26.2-1.5-1.5-1.2-3-4.8-5.3-3-2.1,1.6,1.4,4.4,2.8,5.5,10.8,8.6,28,6.1,37.9-2.8,1-.9,4.3-3.6,2.4-4.9h0Z"/>
  <path d="M52.2,839.7c-5.5-33.3-12.9-66.3-17-99.8-1.2-9.8-1.7-19.8-2.8-29.6-5.1-43-15.5-85.4-20.3-128.6-2.1-19-2.9-38.1-4.4-57.2-2.1-26.9-9.6-60.5,3.9-85.2,1.8-3.3,4.7-8.5,8.8-8.5,1.6,14.8,3.6,29.5,6.2,44.1,4.3,23.9,10.7,47,14.6,71.2,10.8,66.2,17.2,134,28.8,199.8,4.9,27.5,12.9,54.4,16.8,82.2.2,1.6.7,9.7,1.2,10,1,.7,3-.6,3.4-1.8-1.7-10-2.8-20.2-4.7-30.2-4.4-23.3-10.7-45.9-14.6-69.5-11.2-67.6-17.3-136.2-29.4-203.7-6-33.4-14.4-64.4-18.5-98.6-4.3-36.5-5.1-58.5,3-94.6,9.6-42.6,21.5-87.8,33.3-129.9,3.8-13.5,8.7-32,17.7-42.8,6.9-8.3,32.3-27.5,42.3-30.8,4.8-1.6,8.7-1.2,7.8,5-1.8,11.1-25.7,24.9-33,34.1-9.1,11.4-2.2,23.2-6.8,34.5-.8,2.1-2.8,3.7-3.4,6l.9,1.3c2.6.9,3.9-1.9,4.9-3.8,5.8-10.7,0-24,5.8-33.7,7.9-9.3,18.5-16.2,27.4-24.6l-5.9,13.1c-2.3,10.6-10,22.8-10.6,33.4-.1,2.4-.7,7,2.8,6.1,1.7-2.3.7-5.1,1.1-7.7,1.3-8,10-32.1,13.9-39.4,9.1-16.5,35.5-22.4,46.6-40.3,3.3-5.4,5.2-13-.4-17.4l-4.7-1.6,22.3-11.6c1.4,0,1.8,1.9,1.9,3,.6,7.9-9.3,26.7-14.6,32.7-5.6,6.3-12.5,8.6-18.7,13.8-16.2,13.4-34.3,51.4-25.1,71.8.6,1.3,4.3,8.4,6.1,5.6.4-3.6-2.7-6.7-3.8-10.1-5.4-16.8,7.6-43.2,17.7-56.6,1.6-2.1,10.6-11.8,12.8-11.4,1.2.2.4,5.6.2,6.8-4.4,39.7-15.8,79.6-19.6,120-.3,3.1-1.3,7.9,3.5,5.7,9.6-13.5,18.4-27.9,29.9-39.9,3.8-3.9,17.1-17.1,22.9-13,5.4,3.9-2.7,18.7-5,23.1-8.6,16.8-17.2,33.8-25.8,50.6-11.5,22.4-23.8,49.9-44.6,64.8-9.5,6.8-19.4,9.8-29.3,15.2-12.7,6.9-10.3,14.1-5.6,25.9,3.8,9.4,9.2,18.9,13.4,28.4,5.1,11.5,9.6,23.3,14.7,34.8,11.7,26.4,25.4,51.7,36.6,78.2,22.6,53.3,42.1,107.9,65.6,160.9,21,47.2,45.5,92.7,66.6,139.8H52.2Z"/>
  <path d="M485.3,26.3c.6,6.4,2.5,12.1,4.8,18s6.2,11.6,6.9,18.2c-4.1-3.7-7-8.6-10.7-12.7-2.5-2.7-9.5-10.9-13.5-9.1-.7.3-1.3,1.7-1.9,1.8-1,0-10.2-5-12.5-5.5-1.2-.3-1.8-.5-3.1,0-.8.3-5.9,13.1-7.2,15.4-18.1,33.5-42.2,51.5-76.7,66.2-32.9,14-74,14.2-108.6,6.1-31.1-7.3-33.1-20.6-46.7-45.6-5.2-9.6-11-21.2-16.5-30.2-2-3.3-3.1-5.7-7.5-4-3.6,1.5-10.3,5.4-13.9,7.5-14.3,8.5-39.5,27.8-29,47.3,1.4,2.5,3.8,3.6,4.6,6.1-3.1,0-9.8,5.8-12.1,4.7-.6-.3-4.1-3.4-4.7-4.1-15.8-17.7-3.9-37.7,12.4-49.2,21.9-15.3,67.2-36.1,92.9-44,40.8-12.6,81-7.5,122.9-3.6,24.6,2.3,50.2,5,74.7,8.3,15.2,2.1,30.4,4.9,45.3,8.3h0ZM296.8,29.5c-3.7-.9-3.7,2.6-4.2,5.4-.8,4.2-2.4,16.8-.6,20.1,1,2,6.9,5.8,9.1,6.9,2.7,1.3,16.6,6.8,18.8,6.9.5,0,.9,0,1.4-.3l.9-.8-.5-1.6c-7-3.2-16.5-5.3-22.7-9.7-2.9-2.1-4.4-2.9-4.2-6.8.2-6.8,2-13.4,2.2-20.1h0ZM399,47.2c-.5,0-1.5.6-1.8,1-1.5,2.6,5.3,10.8,4.7,15.1-.2,1.7-2.4,3.3,0,5h1.6c2.7-2.9,15-7.8,16.3-10.7.8-1.8-2.7-2.5-3.5-3.1-3.9-2.6-12.4-8.2-17.2-7.3h0ZM368.2,52.2c-3.2.8-9.4,8.6-13.4,9.7-3.1,4.3,4.1,4.3,6.9,5.3,2.1.8,4.1,1.8,6.1,2.7,1.8.8,6.5,5.2,7.6,1.5s-2.4-2.4-3.8-3.7c-2.9-2.8-1.2-11.2-.6-14.8-.4-1.2-1.9-1-2.8-.8h0ZM279.6,62.6c-2.3.8.9,5.8,1.2,7.5.2,1.4.3,3.4.1,4.8-.3,3.5-3.1,6.2-1.7,9.4,1,.6,1.7.1,2.6-.2,2.2-.9,14.4-8,16.3-9.5.9-.7,2.2-2.7.9-3.5-4.6.3-16.1-9.6-19.5-8.4h0ZM254.4,82.4c-.1-.2-1.3-.5-1.8-1.2-1.2-1.7-2.3-5.3-2.5-7.4-.2-2.5,1.4-10.4-2.6-9.2-1.8.5-12.8,7.9-13.3,9.3-1.1,3.6,3,4,5,5.2,2.1,1.3,11.7,7.9,13.2,7.5,1.4-.4,2.7-2.9,1.9-4.2h0Z"/>
  <path d="M697.1,839.7h-46.2l-3.3-44.8c.8-27.4-1.6-54.6-2.2-82-.9-41.9,1.2-83.8,1.1-125.9,0-35.9,0-71.8.5-107.7.2-15.2.6-31.7,0-46.8-.5-10.8-2.5-21.6-2.8-32.4,0-.5,0-.9,0-1.4,9.1-.1,16.7,9.9,21.3,16.9,35.9,53.7,21.5,135.5,17.2,196.7-.5,7.3,0,15.3-.6,22.5-.9,13.2-3.9,25.7-3.3,39,.4,8.4,2.2,16.9,2.8,25.3.9,12.5.9,24.9,2.2,37.4,1.8,17.2,5.4,34.1,7.6,51.2,2.3,17.2,3.6,34.6,5.6,51.9h0Z"/>
  <path d="M693.2,82.8l-27.8-2.2c-34.3-.8-68.5-2.2-102.8-2.8-7.4-.1-15-.3-22.3.6l-9.4-29.1,142.6-11.5,19.6,45h0Z"/>
  <path d="M323.2,140.6c.1.8-1,.7-1.5.9-4.5,1.4-9.1,2.4-13.6,4-11.2,4.1-21.7,10.6-31.8,16.5-23.6-5.1-47-10.9-70-18-9.3-2.9-22.7-6.3-31.2-10-.5-.2-1-.3-1.3-.9,2.8-2.6,6-4.9,7.7-8.5,6.9,1.7,13.3,5.3,20.2,6.9,22.3,5.5,48.5,4.5,71.3,8.4l50.3.6h0Z"/>
  <path d="M170.2,106.1c4.5,4.1-2,13.5-5,16.9-10.2,11.3-24.9,17.2-36.3,26.9l2.9-7c2.6-13.8-10.3-12.9-18.7-7.2l-29.5,20.2c12.3-15.9,31.4-26.1,48.9-35.5,6.1-3.3,29-15.5,34.4-15.6.9,0,2.7.6,3.3,1.2h0Z"/>
  <path d="M483.8,98.8l7.5,13.8c-4.2,3-8,5.3-12.8,7.6-17.1,8.2-36.6,14.5-55,19.2-11.3,2.8-11.3,1.2-21.9-.3-4.2-.6-8.4-.7-12.6-1.2-.9-.1-1.8.1-2.5-.9,17-3.2,32.8-5.9,49.1-11.9,11.2-4.2,33.7-13,42.2-20.5,1.9-1.7,3.3-3.7,4.9-5.4.4-.5.4-.5,1.1-.4h0Z"/>
  <path d="M536,77.3l-9.9-12.9c-1.5-1.8-11.3-11.9-11.5-12.7,0-.6,1-1.3,1-2.6,0-10.9-5.9-29.8-1.1-39.7.4-.8.7-1.4,1.4-1.9,1.3,0,3.5,6.9,3.8,8.2,3.1,10.8,4,22.6,7,33.7,2.6,9.5,6.7,18.4,9.2,27.9h0Z"/>
  <path d="M577.1,159.4c.7.7.8,2.4.6,3.4l-5.5,25.1-8.2-24.2c3.1,1.1,10.7-6.7,13.1-4.3h0Z"/>
  <path d="M511.8,47.7c-4.3-4.4-6.6-10.3-9.9-15.4l8.5,3.3,1.4,12.1h0Z"/>
  <polygon points="493.6 90.5 489.8 90 491.7 86.7 493.6 90.5"/>
  <path class="st0" d="M405,210.8c-2.1,2.1-13-2.3-15.6-3.6-2.1-1-6.4-2.6-5.6-5.8.3-1.3,13-12.1,14.8-12.7.6-.2,1.1-.5,1.8-.2,3,.8.1,5.8,0,7.9-.4,3.3,0,5.7,1.9,8.4,1.1,1.6,5.1,3.7,2.9,6Z"/>
  <path class="st0" d="M324.5,210.6c-3.1,3.4-6.5,6.5-9.3,10.2l-1.2.5c-5.3-1-1.9-7.5-2.6-11.7s-4.5-6.6-4.2-10.8c2.5-1.2,5.2,0,7.7.6,2.2.6,11.9,3.9,12.4,5.7.9,3-1.6,3.8-3,5.4h0Z"/>
  <path class="st0" d="M431.3,186.3c1.7,0,14.4,4.2,16.5,5.2,1.6.7,3.4,1.5,2.8,3.6-.2.6-.8,1.1-1.3,1.5-1.7,1.5-12.2,9.1-13.8,9.8-7.2,3.2-1.8-6.7-2.5-11.1-.6-3.7-4.2-5.6-4.3-6.7-.2-1.6,1.2-2.2,2.6-2.3h0Z"/>
  <path class="st0" d="M278.5,203.3c3.8-.6.4,5.7.7,8.4.3,2.7,6.7,13.7,2.4,14.5-1.2.2-8.8-3-10.3-3.8-1.7-.8-4.4-2.4-6-3.3s-1-2-.3-3.4c1.4-2.5,10.9-12,13.5-12.4h0Z"/>
  <path class="st0" d="M350.7,208.8c.4.6-.1,1.8-.5,2.5-2.2,3.6-11.7,9.6-15.1,14-3.5,4.3-4.5,7.2-2.7,12.6.9,2.8,5.6,9.5,5.8,11.3,0,.6,0,1.2-.5,1.6-2.2,1.5-4.2-3.4-5.3-5.2-8.4-15-3.3-20.3,8-30.5,1.6-1.4,6.3-5.9,7.9-6.5.7-.3,2.2-.3,2.5.2h0Z"/>
  <path class="st0" d="M351.7,385.8c1.9,1.2-1.5,4-2.4,4.9-9.9,8.8-27.1,11.4-37.9,2.8-1.4-1.1-4.9-3.9-2.8-5.5,2.3-1.8,3.8,1.8,5.3,3,6.9,5.6,18.4,5.1,26.2,1.5,2.7-1.2,9.6-7.9,11.6-6.6h0Z"/>
  <path class="st0" d="M332.4,265.4c1.3-.2,3.6.7,4,1.9.2,1.1-.8,1.5-.9,2.2-.1.8.6,2.3.4,3.7-.5,4.5-2.7,13-9,11.2-6.9-2-1.1-17.8,5.5-19h0ZM332,269.7c-3.2,2-6.5,8.4-3.6,11.5,3.9-2.1,3.6-7.6,3.6-11.5Z"/>
  <path class="st0" d="M399,47.2c4.8-.9,13.4,4.7,17.2,7.3.8.5,4.3,1.3,3.5,3.1-1.3,2.9-13.6,7.9-16.3,10.7h-1.6c-2.4-1.7-.2-3.3,0-5,.6-4.3-6.2-12.5-4.7-15.1.3-.4,1.3-.9,1.8-1h0Z"/>
  <path class="st0" d="M279.6,62.6c3.4-1.1,14.9,8.8,19.5,8.4,1.3.9,0,2.8-.9,3.5-1.9,1.5-14.1,8.7-16.3,9.5-.9.4-1.7.8-2.6.2-1.4-3.2,1.4-5.9,1.7-9.4.1-1.4,0-3.4-.1-4.8-.3-1.7-3.5-6.7-1.2-7.5h0Z"/>
  <path class="st0" d="M254.4,82.4c.8,1.3-.6,3.9-1.9,4.2-1.5.4-11-6.2-13.2-7.5s-6.1-1.6-5-5.2c.4-1.5,11.5-8.8,13.3-9.3,3.9-1.2,2.3,6.7,2.6,9.2.2,2.1,1.3,5.7,2.5,7.4.5.8,1.7,1,1.8,1.2h0Z"/>
  <path class="st0" d="M368.2,52.2c1-.2,2.4-.4,2.8.8-.6,3.6-2.3,12,.6,14.8,1.4,1.3,4.9,0,3.8,3.7s-5.8-.7-7.6-1.5c-2-1-4-2-6.1-2.7-2.8-1-10-1-6.9-5.3,4-1.2,10.1-8.9,13.4-9.7h0Z"/>
  <path class="st0" d="M296.8,29.5c-.2,6.7-2,13.3-2.2,20.1-.1,3.9,1.3,4.7,4.2,6.8,6.2,4.4,15.7,6.5,22.7,9.7l.5,1.6-.9.8c-.4.3-.9.3-1.4.3-2.3-.1-16.1-5.6-18.8-6.9-2.1-1.1-8.1-4.9-9.1-6.9-1.7-3.3-.2-15.9.6-20.1.6-2.8.5-6.3,4.2-5.4h0Z"/>
  <path d="M332,269.7c0,4,.4,9.4-3.6,11.5-3-3.1.4-9.5,3.6-11.5Z"/>
</svg>